<?xml version="1.0" encoding="utf-8"?>
<!-- Generator: Adobe Illustrator 16.0.0, SVG Export Plug-In . SVG Version: 6.00 Build 0)  -->
<!DOCTYPE svg PUBLIC "-//W3C//DTD SVG 1.1//EN" "http://www.w3.org/Graphics/SVG/1.1/DTD/svg11.dtd">
<svg version="1.1" id="Layer_1" xmlns="http://www.w3.org/2000/svg" xmlns:xlink="http://www.w3.org/1999/xlink" x="0px" y="0px"
	 width="1246.475px" height="360px" viewBox="0 0 1246.475 360" enable-background="new 0 0 1246.475 360" xml:space="preserve">
<path fill-rule="evenodd" clip-rule="evenodd" fill="#231F20" d="M0,8c3.008-5.325,7.6-7.083,13.633-7.077
	c106.488,0.104,212.976,0.081,319.464,0.089c10.662,0.001,13.097,2.545,13.083,13.217c-0.078,62.157-0.223,124.314-0.04,186.472
	c0.022,7.535-2.441,12.75-8.06,17.666c-52.273,45.724-104.351,91.672-156.535,137.497c-1.916,1.682-4.351,2.771-6.544,4.136
	c-1.667,0-3.334,0-5,0c-2.894-2.438-5.835-4.822-8.676-7.322c-51.7-45.496-103.369-91.027-155.118-136.467
	c-3.677-3.229-5.292-6.797-5.281-11.705c0.079-33.455-0.026-66.911-0.128-100.366C0.792,102.426,0.277,100.713,0,99
	C0,68.667,0,38.333,0,8z M152.469,317.468c12.932-17.269,31.533-15.269,42.583-0.798c41.714-36.705,83.401-73.387,124.364-109.432
	c-30.062-30.065-59.893-59.901-89.887-89.899c-0.845,0.736-2.227,1.926-3.595,3.132c-14.739,12.987-29.447,26.01-44.228,38.949
	c-6.104,5.343-10.747,5.256-16.755-0.024c-6.127-5.385-12.233-10.792-18.362-16.175c-10.084-8.857-20.18-17.702-29.75-26.095
	c-30.155,30.173-59.905,59.941-89.856,89.911C68.566,243.631,110.505,280.538,152.469,317.468z M38.892,21.798
	c45.52,39.826,89.932,78.684,134.418,117.607c44.87-39.219,89.282-78.037,134.555-117.607
	C217.803,21.798,129.091,21.798,38.892,21.798z M247.133,101.814c26.237,26.727,52.192,53.166,78.548,80.014
	c0-49.727,0-98.849,0-148.682C298.981,56.488,272.812,79.366,247.133,101.814z M20.798,180.646c0.425,0.246,0.849,0.49,1.274,0.735
	c25.763-26.409,51.525-52.818,77.525-79.471c-25.584-22.235-51.87-45.079-78.799-68.484
	C20.798,83.214,20.798,131.931,20.798,180.646z"/>
<path fill-rule="evenodd" clip-rule="evenodd" fill="#231F20" d="M976,0c6.85,1.612,13.699,3.224,21.076,4.96
	c-2,6.216-3.893,12.102-5.795,18.014c-5.45-1.15-10.424-2.43-15.473-3.225c-17.611-2.771-27.164,3.725-30.176,21.215
	c-1.256,7.29-0.996,14.84-1.461,22.856c6.96,0,13.086,0,19.211,0c5.99,0,11.98,0,18.297,0c0,5.73,0,11.292,0,17.271
	c-12.137,0-24.224,0-36.963,0c0,43.439,0,86.473,0,129.709c-7.773,0-14.895,0-22.561,0c0-42.979,0-86.028,0-129.599
	c-9.098,0-17.667,0-26.697,0c0-2.32,0.156-4.135-0.035-5.913c-0.338-3.121,0.613-4.671,3.961-5.547
	c7.537-1.97,14.912-4.551,21.793-6.708c0.936-9.617,1.1-19.006,2.884-28.076c4.03-20.477,15.712-30.952,36.433-34.034
	C961.029,0.844,961.5,0.318,962,0C966.668,0,971.334,0,976,0z"/>
<path fill-rule="evenodd" clip-rule="evenodd" fill="#231F20" d="M784.96,141.832c-33.726,0-67.136,0-100.54,0
	c-0.292,32.085,16.486,50.36,42.286,52.076c14.958,0.995,29.537-1.468,43.669-6.486c2.637-0.937,5.268-1.885,8.627-3.087
	c0,6.392,0.098,12.283-0.1,18.166c-0.033,0.943-1.199,2.304-2.156,2.693c-24.573,9.994-49.711,12.464-75.012,3.572
	c-15.949-5.604-27.638-16.879-33.89-32.632c-10.978-27.659-10.485-55.613,2.646-82.267c17.373-35.262,66.047-44.325,94.959-18.339
	c12.375,11.122,18.01,25.799,19.395,42.041C785.517,125.455,784.96,133.446,784.96,141.832z M685.161,122.881
	c25.222,0,50.439,0,75.636,0c1.869-24.775-12.205-42.035-34.195-42.765C697.053,79.135,685.469,104.094,685.161,122.881z"/>
<path fill-rule="evenodd" clip-rule="evenodd" fill="#231F20" d="M981.816,137.25c-0.121-14.087,1.855-27.158,7.258-39.581
	c10.355-23.818,32.74-37.078,61.699-36.583c35.354,0.605,60.628,23.519,65.173,59.162c1.89,14.814,1.704,29.552-1.911,44.146
	c-7.32,29.555-29.06,47.65-59.451,49.426c-29.142,1.704-52.389-10.925-64.201-35.053
	C983.881,165.489,981.517,151.312,981.816,137.25z M1004.195,134.826c1.182,9.781,1.645,16.941,2.965,23.94
	c4.203,22.253,19.017,35.592,39.55,36.054c24.304,0.547,38.796-10.523,44.471-34.22c3.825-15.978,3.663-32.041-0.313-47.942
	c-5.217-20.866-19.55-31.924-41.142-32.254c-19.571-0.299-33.74,8.296-39.54,25.766
	C1006.877,116.132,1005.8,126.835,1004.195,134.826z"/>
<path fill-rule="evenodd" clip-rule="evenodd" fill="#231F20" d="M409.459,63.729c8.01,0,15.268,0,23.082,0c0,2.044,0,3.827,0,5.609
	c0,29.99-0.019,59.98,0.027,89.97c0.005,3.321,0.124,6.683,0.639,9.956c2.52,16.02,12.177,24.653,28.972,25.445
	c5.606,0.265,11.378-0.077,16.883-1.134c17.247-3.313,26.987-14.34,29.819-33.559c0.967-6.562,1.459-13.248,1.509-19.882
	c0.177-23.491,0.07-46.983,0.07-70.476c0-1.812,0-3.624,0-5.816c7.544,0,14.767,0,22.271,0c0,48.896,0,97.779,0,146.915
	c-6.141,0-12.211,0-18.403,0c-1.093-6.377-2.152-12.555-3.245-18.933c-0.802,0.358-1.406,0.429-1.635,0.759
	c-9.932,14.373-24.5,19.955-41.089,21.166c-10.68,0.779-21.343-0.133-31.469-4.008c-18.633-7.129-26.049-22.221-26.728-40.74
	c-0.878-23.957-0.55-47.958-0.692-71.94C409.405,86.093,409.459,75.125,409.459,63.729z"/>
<path fill-rule="evenodd" clip-rule="evenodd" fill="#231F20" d="M1166.575,135.623c-17.036-23.968-33.862-47.641-51.282-72.149
	c8.775,0,16.548-0.164,24.3,0.157c1.339,0.056,2.876,1.971,3.841,3.361c11.372,16.412,22.65,32.889,33.963,49.343
	c0.656,0.953,1.391,1.85,2.463,3.266c1.1-1.517,2.069-2.793,2.975-4.114c11.102-16.196,22.246-32.363,33.232-48.637
	c1.676-2.482,3.43-3.563,6.471-3.461c6.762,0.227,13.535,0.07,21.454,0.07c-17.466,24.577-34.282,48.241-51.281,72.16
	c17.761,24.903,35.497,49.771,53.765,75.388c-8.418,0-16.001,0.181-23.561-0.153c-1.518-0.067-3.348-1.815-4.357-3.261
	c-11.924-17.047-23.713-34.184-35.549-51.292c-0.928-1.341-1.922-2.637-3.258-4.463c-8.418,12.051-16.56,23.71-24.703,35.366
	c-4.861,6.957-9.59,14.016-14.697,20.787c-1.148,1.523-3.595,2.789-5.506,2.883c-6.98,0.34-13.985,0.135-22.061,0.135
	C1130.9,185.618,1148.596,160.82,1166.575,135.623z"/>
<path fill-rule="evenodd" clip-rule="evenodd" fill="#231F20" d="M648.873,70.6c-2.871,6.611-5.369,12.365-8.062,18.566
	c-3.635-1.281-7.136-2.609-10.697-3.753c-15.105-4.854-30.428-7.369-46.146-3.359c-11.279,2.878-16.595,10.153-14.988,20.021
	c0.999,6.132,4.973,10.299,10.145,12.84c8.918,4.383,18.198,8.025,27.268,12.105c9.224,4.149,18.606,8.025,27.52,12.771
	c25.431,13.537,23.366,52.883-2.256,66.071c-9.048,4.657-18.664,6.989-28.693,7.643c-16.557,1.079-32.885,0.076-48.725-5.589
	c-5.014-1.795-7.667-4.271-6.896-10.055c0.584-4.391,0.117-8.923,0.117-13.487c8.588,2.78,16.763,5.878,25.177,8.046
	c13.226,3.408,26.672,3.952,40.004,0.438c11.625-3.065,17.474-10.078,17.354-20.113c-0.084-6.95-3.362-12.369-9.145-15.635
	c-7.922-4.474-16.24-8.264-24.491-12.13c-10.812-5.067-22.261-9.019-32.467-15.08c-15.184-9.017-20.406-25.218-14.931-41.549
	c3.846-11.475,12.43-18.321,23.31-22.321c20.321-7.473,40.868-5.938,61.341-0.512C638.555,66.827,643.34,68.738,648.873,70.6z"/>
<path fill-rule="evenodd" clip-rule="evenodd" fill="#231F20" d="M821.844,210.763c-7.691,0-14.933,0-22.432,0
	c0-48.93,0-97.684,0-146.872c5.985,0,12.033,0,18.477,0c0.857,8.703,1.729,17.541,2.771,28.132
	c14.866-25.554,35.396-35.574,63.584-29.041c-1.029,6.811-2.035,13.475-3.09,20.46c-3.429-0.511-6.338-1.077-9.273-1.361
	c-23.029-2.223-41.746,10.667-47.719,33.36c-1.547,5.877-2.154,12.145-2.218,18.243c-0.246,23.822-0.101,47.648-0.101,71.474
	C821.844,206.947,821.844,208.736,821.844,210.763z"/>
<path fill-rule="evenodd" clip-rule="evenodd" fill="#231F20" d="M128.378,191.434c7.836-0.141,14.476,6.324,14.464,14.082
	c-0.012,7.672-6.222,13.938-13.933,14.055c-7.988,0.123-14.438-6.133-14.451-14.016
	C114.444,197.944,120.727,191.572,128.378,191.434z"/>
<path fill-rule="evenodd" clip-rule="evenodd" fill="#231F20" d="M218.745,191.435c7.687,0.003,13.979,6.196,14.1,13.878
	c0.124,7.912-6.197,14.276-14.163,14.259c-8.061-0.019-14.163-6.236-14.033-14.3C204.774,197.51,210.967,191.432,218.745,191.435z"
	/>
</svg>
